<?xml version="1.0" standalone="no"?>
<!DOCTYPE svg PUBLIC "-//W3C//DTD SVG 20010904//EN"
 "http://www.w3.org/TR/2001/REC-SVG-20010904/DTD/svg10.dtd">
<svg version="1.0" xmlns="http://www.w3.org/2000/svg"
 width="512.000000pt" height="512.000000pt" viewBox="0 0 512.000000 512.000000"
 preserveAspectRatio="xMidYMid meet">
<metadata>
Created by potrace 1.14, written by Peter Selinger 2001-2017
</metadata>
<g transform="translate(0.000000,512.000000) scale(0.100000,-0.100000)"
fill="#000000" stroke="none">
<path d="M3820 4841 c-505 -317 -466 -281 -450 -421 11 -97 34 -165 111 -330
60 -129 63 -139 67 -226 4 -89 3 -94 -29 -155 -19 -36 -63 -92 -99 -129 -67
-66 -191 -155 -209 -148 -5 1 22 44 60 93 96 124 152 238 157 320 5 70 -10
112 -78 225 -67 111 -93 199 -94 316 l-1 101 -35 -22 c-36 -22 -522 -328 -594
-373 l-40 -25 23 -19 c32 -25 21 -32 -26 -18 l-38 12 -363 -227 c-199 -124
-362 -230 -362 -235 0 -11 121 -130 132 -130 4 0 8 -7 8 -15 0 -8 -2 -15 -3
-15 -18 0 -124 45 -174 73 l-61 35 -859 -538 -858 -537 -3 -1227 -2 -1226
2560 0 2560 0 0 2560 0 2560 -427 0 -428 -1 -445 -278z m-1126 -1016 c71 -36
107 -80 113 -140 5 -39 2 -47 -25 -75 -17 -16 -38 -30 -46 -30 -9 0 -16 -4
-16 -10 0 -5 -16 -10 -35 -10 -31 0 -35 -3 -41 -35 -7 -40 15 -75 46 -75 10 0
23 -6 29 -14 6 -7 38 -16 70 -19 97 -10 269 -54 384 -98 417 -159 753 -466
948 -864 86 -177 150 -401 164 -581 5 -56 13 -88 28 -109 15 -21 21 -45 22
-82 0 -48 -3 -55 -43 -96 -68 -69 -193 -124 -382 -167 -100 -23 -349 -66 -436
-76 l-62 -6 -318 293 c-176 161 -357 328 -403 370 l-84 77 89 95 c78 83 92 94
114 89 14 -4 52 -7 85 -7 97 0 135 25 262 173 178 207 303 359 303 368 0 5
-92 -83 -204 -195 -146 -146 -209 -202 -220 -198 -9 4 -16 11 -16 17 0 8 153
185 190 220 10 10 155 175 175 200 18 22 17 22 -15 -4 -19 -16 -102 -92 -185
-171 -211 -200 -213 -202 -232 -182 -14 13 -14 18 -2 30 8 8 72 75 144 148
310 320 311 331 6 59 -185 -164 -206 -179 -220 -165 -14 14 4 35 189 222 224
225 216 222 -90 -33 -138 -115 -212 -184 -228 -211 -29 -53 -37 -117 -22 -173
l12 -44 -94 -88 c-51 -48 -97 -87 -103 -87 -5 0 -52 39 -103 87 l-92 87 22 45
c18 35 23 62 23 125 0 69 -4 88 -30 138 -42 84 -124 156 -248 217 -208 103
-351 100 -406 -7 -36 -69 5 -242 91 -387 114 -194 302 -274 458 -198 l45 22
87 -92 c48 -51 87 -96 88 -99 0 -4 -21 -26 -47 -50 -51 -46 -117 -106 -503
-463 l-245 -226 -40 6 c-114 16 -394 78 -499 109 -181 55 -275 106 -327 178
-34 47 -37 89 -10 133 11 19 24 69 31 125 50 397 230 762 514 1041 181 179
434 337 661 413 62 21 248 65 302 71 26 3 74 15 106 26 61 22 75 43 63 93 -5
21 -12 25 -41 25 -19 0 -35 5 -35 10 0 6 -6 10 -14 10 -8 0 -28 13 -45 29 -69
64 -20 164 109 226 73 34 150 31 234 -10z m-695 -950 c45 -14 81 -30 81 -34 0
-5 -29 -6 -65 -4 -80 7 -116 -7 -138 -53 -24 -50 -21 -111 12 -208 35 -106 97
-211 162 -276 59 -59 46 -65 -46 -21 -215 103 -374 526 -227 605 42 23 131 19
221 -9z m316 -203 c85 -116 85 -272 -2 -352 -27 -26 -32 -28 -20 -10 89 128
79 277 -24 395 -27 30 -29 36 -11 26 12 -7 38 -33 57 -59z m540 -82 c-18 -20
-18 -21 13 -52 l31 -32 27 24 c25 24 26 24 15 3 -6 -12 -16 -25 -22 -29 -7 -4
2 -19 22 -40 l33 -34 30 28 29 27 -23 -33 -23 -34 31 -31 31 -31 27 24 27 25
-23 -32 c-43 -60 -124 -103 -193 -103 -43 0 -97 29 -118 64 -29 47 -23 60 10
24 28 -32 32 -33 103 -33 55 0 80 5 101 19 l28 19 -100 101 -101 101 27 27
c31 31 46 29 18 -2z m-44 -860 c331 -354 387 -415 385 -418 -10 -9 -472 -32
-661 -32 -213 0 -621 22 -633 35 -3 3 21 33 54 67 77 82 486 519 544 581 l45
48 65 -68 c36 -37 126 -133 201 -213z m-2017 128 c-3 -29 -14 -67 -23 -83 -41
-71 -36 -124 16 -184 75 -88 258 -163 553 -227 238 -51 363 -70 700 -106 155
-16 813 -16 1000 1 413 36 803 96 995 152 157 47 294 129 331 200 20 40 17 96
-7 136 -22 35 -51 151 -39 158 13 8 209 -83 268 -124 76 -54 112 -104 112
-156 0 -207 -493 -396 -1265 -486 -255 -29 -445 -40 -790 -46 -531 -8 -881 17
-1355 96 -97 16 -348 80 -443 112 -201 69 -354 165 -397 250 -51 99 -1 187
160 277 49 27 163 77 188 81 1 1 0 -23 -4 -51z m1480 -30 c-44 -46 -169 -176
-278 -290 -184 -192 -201 -208 -233 -208 -19 0 -33 4 -31 9 2 5 48 51 103 102
145 134 371 345 440 411 91 87 90 69 -1 -24z m731 -154 c94 -87 214 -199 268
-249 l98 -90 -33 -7 c-30 -7 -37 -3 -83 45 -27 29 -144 150 -260 271 -200 209
-283 302 -199 225 21 -19 116 -107 209 -195z"/>
<path d="M2563 3813 c9 -2 23 -2 30 0 6 3 -1 5 -18 5 -16 0 -22 -2 -12 -5z"/>
<path d="M2995 3309 c410 -164 670 -447 818 -890 57 -171 86 -330 102 -564 17
-243 23 -292 35 -300 28 -17 184 47 238 98 28 27 32 37 32 84 0 110 -48 344
-105 518 -38 113 -132 303 -206 415 -92 139 -281 325 -429 421 -134 87 -252
146 -403 200 -112 41 -169 53 -82 18z"/>
<path d="M1469 2963 c-174 -158 -298 -319 -400 -516 -62 -121 -93 -200 -131
-342 -38 -140 -42 -235 -12 -265 l21 -21 6 75 c32 372 272 845 556 1096 31 27
54 49 51 50 -3 0 -44 -35 -91 -77z"/>
<path d="M870 1793 c0 -56 45 -106 126 -138 l39 -16 -30 23 c-62 47 -103 89
-119 121 -13 27 -16 28 -16 10z"/>
</g>
</svg>
